<svg width="84" height="68" viewBox="0 0 84 68" fill="none" xmlns="http://www.w3.org/2000/svg">
<path d="M0.936 0.799995H16.008L22.728 48.896H22.92L29.64 0.799995H44.712V68H34.728V17.12H34.536L26.856 68H18.024L10.344 17.12H10.152V68H0.936V0.799995ZM52.5923 0.799995H68.1443C73.3923 0.799995 77.3283 2.208 79.9523 5.024C82.5763 7.84 83.8883 11.968 83.8883 17.408V24.032C83.8883 29.472 82.5763 33.6 79.9523 36.416C77.3283 39.232 73.3923 40.64 68.1443 40.64H63.1523V68H52.5923V0.799995ZM68.1443 31.04C69.8723 31.04 71.1523 30.56 71.9843 29.6C72.8803 28.64 73.3282 27.008 73.3282 24.704V16.736C73.3282 14.432 72.8803 12.8 71.9843 11.84C71.1523 10.88 69.8723 10.4 68.1443 10.4H63.1523V31.04H68.1443Z" fill="black"/>
</svg>
